<svg>
	<defs>
		<symbol xmlns="http://www.w3.org/2000/svg"
				width="22"
				height="13"
				viewBox="0 0 22 13"
				class="eye"
				id="eye">
			<path d="M21.0511 6.1334C20.9136 5.8958 17.6313 0.35 11 0.35C4.36878 0.35 1.08647 5.89581 0.948957 6.13322L0.948948 6.13323C0.884225 6.245 0.850023 6.37123 0.850023 6.49993C0.850023 6.62861 0.884221 6.75483 0.948936 6.8666L1.07875 6.79146L0.948948 6.86662C1.08666 7.10452 4.36897 12.65 11 12.65C17.6313 12.65 20.9136 7.10419 21.0511 6.86678L21.0511 6.86677C21.1158 6.75499 21.15 6.62877 21.15 6.50008C21.15 6.37139 21.1158 6.24517 21.0511 6.1334ZM21.0511 6.1334L20.9213 6.20855L21.0511 6.13338C21.0511 6.13339 21.0511 6.1334 21.0511 6.1334ZM11 11.15C6.22315 11.15 3.36604 7.66701 2.54309 6.4989C3.36272 5.33003 6.20786 1.85 11 1.85C15.7769 1.85 18.634 5.33299 19.457 6.50111C18.6373 7.66998 15.7922 11.15 11 11.15ZM7.10002 6.5C7.10002 8.57366 8.85519 10.25 11 10.25C13.1449 10.25 14.9 8.57366 14.9 6.5C14.9 4.42635 13.1449 2.75 11 2.75C8.85519 2.75 7.10002 4.42635 7.10002 6.5ZM8.65002 6.5C8.65002 5.26526 9.6986 4.25 11 4.25C12.3015 4.25 13.35 5.26526 13.35 6.5C13.35 7.73475 12.3015 8.75 11 8.75C9.6986 8.75 8.65002 7.73475 8.65002 6.5Z"
				  stroke="#EEEEEE"
				  stroke-width="0.3" />
		</symbol>
		<symbol xmlns="http://www.w3.org/2000/svg"
				viewBox="0 0 14 9"
				id="arrow_down"
				class="arrow_down">
			<path d="M13.9678 1.02728C13.9686 1.15889 13.9433 1.28935 13.8936 1.41119C13.8438 1.53303 13.7705 1.64384 13.6778 1.73728L7.6778 7.73728C7.49044 7.92353 7.23699 8.02808 6.9728 8.02808C6.70861 8.02808 6.45516 7.92353 6.2678 7.73728L0.267801 1.73728C0.103974 1.54598 0.0183681 1.29991 0.0280892 1.04823C0.0378104 0.796554 0.142142 0.557815 0.320237 0.379721C0.498331 0.201626 0.737071 0.0972933 0.988747 0.0875721C1.24042 0.0778508 1.4865 0.163457 1.6778 0.327284L6.9678 5.61728L12.2578 0.327283C12.3971 0.186862 12.5749 0.0908908 12.7687 0.0515055C12.9625 0.0121206 13.1636 0.0310902 13.3467 0.106016C13.5297 0.180941 13.6864 0.308458 13.797 0.472441C13.9075 0.636424 13.967 0.82951 13.9678 1.02728Z"
				  fill="white" />
		</symbol>
		<symbol xmlns="http://www.w3.org/2000/svg"
				id="heart">
			<path fill-rule="evenodd"
				  clip-rule="evenodd"
				  d="M11.6734 3.5C10.7262 3.5 9.81782 3.87626 9.14807 4.54602C8.47831 5.21577 8.10205 6.12416 8.10205 7.07133C8.10205 8.21342 8.55365 9.38952 9.34091 10.5628C10.1262 11.7333 11.1969 12.8272 12.3076 13.7777C13.4133 14.724 14.5252 15.4997 15.3637 16.0398C15.6622 16.2322 15.9245 16.3936 16.1376 16.5213C16.3506 16.3936 16.6129 16.2322 16.9115 16.0398C17.75 15.4997 18.8619 14.724 19.9676 13.7777C21.0783 12.8272 22.1489 11.7333 22.9342 10.5628C23.7215 9.38952 24.1731 8.21342 24.1731 7.07133C24.1731 6.12416 23.7968 5.21577 23.1271 4.54602C22.4573 3.87626 21.5489 3.5 20.6018 3.5C19.0463 3.5 17.8049 4.3335 17.2944 5.58063C17.1022 6.05028 16.6451 6.35709 16.1376 6.35709C15.6301 6.35709 15.173 6.05028 14.9807 5.58063C14.4702 4.3335 13.2289 3.5 11.6734 3.5ZM16.1376 17.964C15.545 19.0646 15.5447 19.0644 15.5443 19.0642L15.5411 19.0625L15.5339 19.0586L15.5096 19.0453C15.4891 19.0341 15.46 19.018 15.4229 18.9972C15.3486 18.9556 15.2423 18.8953 15.1084 18.8171C14.8408 18.6609 14.4623 18.433 14.0097 18.1415C13.1072 17.56 11.8977 16.7174 10.6821 15.6771C9.47136 14.641 8.22064 13.3802 7.26492 11.9558C6.31114 10.5343 5.60205 8.87562 5.60205 7.07133C5.60205 5.46111 6.24171 3.91685 7.3803 2.77825C8.5189 1.63966 10.0632 1 11.6734 1C13.4074 1 15.0121 1.66809 16.1376 2.84654C17.2631 1.66809 18.8677 1 20.6018 1C22.212 1 23.7563 1.63966 24.8949 2.77825C26.0334 3.91685 26.6731 5.46111 26.6731 7.07133C26.6731 8.87562 25.964 10.5343 25.0102 11.9558C24.0545 13.3802 22.8038 14.641 21.5931 15.6771C20.3774 16.7174 19.1679 17.56 18.2654 18.1415C17.8129 18.433 17.4344 18.6609 17.1668 18.8171C17.0329 18.8953 16.9265 18.9556 16.8523 18.9972C16.8152 19.018 16.7861 19.0341 16.7655 19.0453L16.7412 19.0586L16.734 19.0625L16.7317 19.0638C16.7314 19.0639 16.7302 19.0646 16.1376 17.964ZM16.1376 17.964L16.7302 19.0646C16.3602 19.2638 15.9143 19.2634 15.5443 19.0642L16.1376 17.964Z" />
		</symbol>
		<symbol xmlns="http://www.w3.org/2000/svg"
				viewBox="0 0 18 18"
				id="search"
				class="search">
			<path d="M17.1423 15.73L13.8993 12.487C14.8882 11.1978 15.4233 9.61783 15.4213 7.993C15.4213 6.008 14.6483 4.1425 13.2448 2.739C12.5565 2.04682 11.7377 1.49805 10.8358 1.12445C9.934 0.750857 8.967 0.559852 7.99083 0.562497C6.00633 0.562497 4.14083 1.3355 2.73683 2.739C-0.159672 5.636 -0.159672 10.35 2.73683 13.247C3.42515 13.9392 4.24394 14.488 5.14579 14.8616C6.04765 15.2352 7.01466 15.4262 7.99083 15.4235C9.63783 15.4235 11.1983 14.884 12.4853 13.901L15.7283 17.1445C15.9233 17.3395 16.1793 17.4375 16.4353 17.4375C16.6913 17.4375 16.9473 17.3395 17.1423 17.1445C17.2352 17.0516 17.3089 16.9414 17.3592 16.82C17.4095 16.6987 17.4354 16.5686 17.4354 16.4372C17.4354 16.3059 17.4095 16.1758 17.3592 16.0545C17.3089 15.9331 17.2352 15.8229 17.1423 15.73ZM4.15133 11.833C2.03383 9.7155 2.03433 6.2705 4.15133 4.153C4.65451 3.64729 5.25298 3.24638 5.9121 2.97346C6.57123 2.70054 7.27794 2.56103 7.99133 2.563C8.70465 2.56104 9.41127 2.70055 10.0703 2.97347C10.7294 3.2464 11.3277 3.6473 11.8308 4.153C12.3367 4.6561 12.7377 5.25455 13.0107 5.91368C13.2837 6.57282 13.4233 7.27956 13.4213 7.993C13.4213 9.4435 12.8563 10.807 11.8308 11.833C10.8053 12.859 9.44183 13.423 7.99083 13.423C6.54083 13.423 5.17683 12.858 4.15083 11.833H4.15133Z"
				  fill="white" />
		</symbol>
		<symbol xmlns="http://www.w3.org/2000/svg"
				viewBox="0 0 18 22"
				class="ring"
				id="ring"
				fill="none">
			<path d="M11.0498 19.1818V19.1318H10.9998H7.36344H7.31344V19.1818C7.31344 19.6773 7.51027 20.1525 7.86062 20.5028C8.21097 20.8532 8.68615 21.05 9.18163 21.05C9.6771 21.05 10.1523 20.8532 10.5026 20.5028C10.853 20.1525 11.0498 19.6773 11.0498 19.1818ZM17.3405 16.8219L17.3405 16.8219C17.4132 16.6466 17.4321 16.4537 17.3951 16.2676C17.358 16.0815 17.2666 15.9106 17.1324 15.7765L15.5953 14.2393V9.18182V9.18176C15.5935 7.6408 15.0369 6.15199 14.0274 4.98772C13.0274 3.83437 11.6491 3.07588 10.1407 2.84776V1.90909C10.1407 1.65472 10.0397 1.41078 9.85981 1.23091C9.67994 1.05105 9.43599 0.95 9.18163 0.95C8.92726 0.95 8.68331 1.05105 8.50345 1.23091C8.32358 1.41078 8.22253 1.65472 8.22253 1.90909V2.84776C6.71411 3.07588 5.33585 3.83437 4.33583 4.98772C3.32635 6.15199 2.76979 7.6408 2.76799 9.18176V9.18182V14.2393L1.23081 15.7765L1.23081 15.7765C1.09672 15.9106 1.00541 16.0815 0.968418 16.2675C0.931428 16.4535 0.950421 16.6463 1.023 16.8215C1.09557 16.9968 1.21847 17.1465 1.37615 17.2519C1.53384 17.3573 1.71923 17.4136 1.90889 17.4136H16.4544C16.644 17.4137 16.8294 17.3575 16.9872 17.2522C17.1449 17.1468 17.2679 16.9971 17.3405 16.8219ZM14.1391 15.4955H4.22415L4.40516 15.3144C4.58503 15.1346 4.68612 14.8907 4.68617 14.6364V9.18182C4.68617 7.98955 5.1598 6.84611 6.00286 6.00305C6.84592 5.15999 7.98936 4.68636 9.18163 4.68636C10.3739 4.68636 11.5173 5.15999 12.3604 6.00305C13.2035 6.84611 13.6771 7.98955 13.6771 9.18182V14.6364C13.6771 14.8907 13.7782 15.1346 13.9581 15.3144C13.9581 15.3144 13.9581 15.3145 13.9581 15.3145L14.1391 15.4955Z"
				  fill="white"
				  stroke="white"
				  stroke-width="0.1" />
		</symbol>
		<symbol xmlns="http://www.w3.org/2000/svg"
				id="burger"
				class="burger"
				viewBox="0 0 18 14">
			<path
				  d="M16.875 14H1.125C0.50366 14 0 13.4776 0 12.8333C0 12.189 0.50366 11.6667 1.125 11.6667H16.875C17.4963 11.6667 18 12.189 18 12.8333C18 13.4776 17.4963 14 16.875 14ZM16.875 8.16665H1.125C0.50366 8.16665 0 7.64434 0 7.00002C0 6.3557 0.50366 5.83335 1.125 5.83335H16.875C17.4963 5.83335 18 6.35566 18 7.00002C18 7.64438 17.4963 8.16665 16.875 8.16665ZM16.875 2.33334H1.125C0.50366 2.33334 0 1.81103 0 1.16667C0 0.522313 0.50366 0 1.125 0H16.875C17.4963 0 18 0.522313 18 1.16667C18 1.81103 17.4963 2.33334 16.875 2.33334Z" />
		</symbol>
		<symbol class="cross"
				viewBox="0 0 1024 1024"
				version="1.1"
				xmlns="http://www.w3.org/2000/svg"
				id="cross">
			<path
				  d="M810.65984 170.65984q18.3296 0 30.49472 12.16512t12.16512 30.49472q0 18.00192-12.32896 30.33088l-268.67712 268.32896 268.67712 268.32896q12.32896 12.32896 12.32896 30.33088 0 18.3296-12.16512 30.49472t-30.49472 12.16512q-18.00192 0-30.33088-12.32896l-268.32896-268.67712-268.32896 268.67712q-12.32896 12.32896-30.33088 12.32896-18.3296 0-30.49472-12.16512t-12.16512-30.49472q0-18.00192 12.32896-30.33088l268.67712-268.32896-268.67712-268.32896q-12.32896-12.32896-12.32896-30.33088 0-18.3296 12.16512-30.49472t30.49472-12.16512q18.00192 0 30.33088 12.32896l268.32896 268.67712 268.32896-268.67712q12.32896-12.32896 30.33088-12.32896z" />
		</symbol>
		<symbol xmlns="http://www.w3.org/2000/svg"
				id="pencil"
				class="pencil">
			<path fill-rule="evenodd"
				  clip-rule="evenodd"
				  d="M12.0392 4.99999L13.3841 3.65512L16.3447 6.61377L14.999 7.9598L12.0392 4.99999ZM9.91789 4.29289L12.2351 1.97568L12.2353 1.97545C12.54 1.67094 12.9532 1.49988 13.384 1.49988C13.8148 1.49988 14.2279 1.67093 14.5327 1.97545L14.5327 1.97545L18.0241 5.46451L18.0245 5.46498C18.329 5.76969 18.5001 6.18286 18.5001 6.61365C18.5001 7.04444 18.329 7.45761 18.0245 7.76232L18.0244 7.76247L15.7422 10.0452C15.7309 10.0577 15.7192 10.07 15.7071 10.0821C15.6951 10.0941 15.6828 10.1058 15.6704 10.117L8.39001 17.3992L8.38953 17.3997C8.08502 17.7038 7.67227 17.8748 7.24187 17.875H7.24141H3.75C3.31903 17.875 2.9057 17.7038 2.60095 17.399C2.2962 17.0943 2.125 16.681 2.125 16.25V12.7586V12.7581C2.1252 12.3277 2.29614 11.915 2.60031 11.6105L2.60071 11.6101L7.41789 6.79287L9.91789 4.29289ZM13.585 9.37418L7.08576 15.875H4.125V12.9142L8.83211 8.20709L10.625 6.4142L13.585 9.37418Z"
				  fill="#BBBBBB" />
		</symbol>
		<symbol xmlns="http://www.w3.org/2000/svg"
				viewBox="0 0 20 20"
				id="exit"
				class="exit">
			<path fill-rule="evenodd"
				  clip-rule="evenodd"
				  d="M3.60095 2.60095C3.9057 2.29621 4.31902 2.125 4.75 2.125H9.125C9.67728 2.125 10.125 2.57272 10.125 3.125C10.125 3.67728 9.67728 4.125 9.125 4.125H5.125V15.875H9.125C9.67728 15.875 10.125 16.3227 10.125 16.875C10.125 17.4273 9.67728 17.875 9.125 17.875H4.75C4.31902 17.875 3.9057 17.7038 3.60095 17.399C3.2962 17.0943 3.125 16.681 3.125 16.25V3.75C3.125 3.31902 3.29621 2.9057 3.60095 2.60095ZM8.125 10C8.125 9.44772 8.57272 9 9.125 9H15.4608L14.0429 7.58211C13.6524 7.19158 13.6524 6.55842 14.0429 6.16789C14.4334 5.77737 15.0666 5.77737 15.4571 6.16789L18.5815 9.2923C18.5839 9.29467 18.5863 9.29705 18.5886 9.29945C18.6813 9.3938 18.7514 9.50195 18.7991 9.61722C18.8477 9.73425 18.8746 9.8625 18.875 9.997C18.875 9.998 18.875 9.999 18.875 10C18.875 10.001 18.875 10.002 18.875 10.003C18.8742 10.2746 18.7651 10.5208 18.5886 10.7005C18.5862 10.703 18.5838 10.7054 18.5814 10.7078L15.4571 13.8321C15.0666 14.2226 14.4334 14.2226 14.0429 13.8321C13.6524 13.4416 13.6524 12.8084 14.0429 12.4179L15.4608 11H9.125C8.57272 11 8.125 10.5523 8.125 10Z"
				  fill="#BBBBBB" />
		</symbol>
	</defs>
</svg>