<svg>
	<defs>
		<symbol xmlns="http://www.w3.org/2000/svg"
				width="22"
				height="13"
				viewBox="0 0 22 13"
				class="eye"
				id="eye">
			<path d="M21.0511 6.1334C20.9136 5.8958 17.6313 0.35 11 0.35C4.36878 0.35 1.08647 5.89581 0.948957 6.13322L0.948948 6.13323C0.884225 6.245 0.850023 6.37123 0.850023 6.49993C0.850023 6.62861 0.884221 6.75483 0.948936 6.8666L1.07875 6.79146L0.948948 6.86662C1.08666 7.10452 4.36897 12.65 11 12.65C17.6313 12.65 20.9136 7.10419 21.0511 6.86678L21.0511 6.86677C21.1158 6.75499 21.15 6.62877 21.15 6.50008C21.15 6.37139 21.1158 6.24517 21.0511 6.1334ZM21.0511 6.1334L20.9213 6.20855L21.0511 6.13338C21.0511 6.13339 21.0511 6.1334 21.0511 6.1334ZM11 11.15C6.22315 11.15 3.36604 7.66701 2.54309 6.4989C3.36272 5.33003 6.20786 1.85 11 1.85C15.7769 1.85 18.634 5.33299 19.457 6.50111C18.6373 7.66998 15.7922 11.15 11 11.15ZM7.10002 6.5C7.10002 8.57366 8.85519 10.25 11 10.25C13.1449 10.25 14.9 8.57366 14.9 6.5C14.9 4.42635 13.1449 2.75 11 2.75C8.85519 2.75 7.10002 4.42635 7.10002 6.5ZM8.65002 6.5C8.65002 5.26526 9.6986 4.25 11 4.25C12.3015 4.25 13.35 5.26526 13.35 6.5C13.35 7.73475 12.3015 8.75 11 8.75C9.6986 8.75 8.65002 7.73475 8.65002 6.5Z"
				  stroke="#EEEEEE"
				  stroke-width="0.3" />
		</symbol>
	</defs>
</svg>