<svg>
	<defs>
		<symbol xmlns="http://www.w3.org/2000/svg"
				width="22"
				height="13"
				viewBox="0 0 22 13"
				class="eye"
				id="eye">
			<path d="M21.0511 6.1334C20.9136 5.8958 17.6313 0.35 11 0.35C4.36878 0.35 1.08647 5.89581 0.948957 6.13322L0.948948 6.13323C0.884225 6.245 0.850023 6.37123 0.850023 6.49993C0.850023 6.62861 0.884221 6.75483 0.948936 6.8666L1.07875 6.79146L0.948948 6.86662C1.08666 7.10452 4.36897 12.65 11 12.65C17.6313 12.65 20.9136 7.10419 21.0511 6.86678L21.0511 6.86677C21.1158 6.75499 21.15 6.62877 21.15 6.50008C21.15 6.37139 21.1158 6.24517 21.0511 6.1334ZM21.0511 6.1334L20.9213 6.20855L21.0511 6.13338C21.0511 6.13339 21.0511 6.1334 21.0511 6.1334ZM11 11.15C6.22315 11.15 3.36604 7.66701 2.54309 6.4989C3.36272 5.33003 6.20786 1.85 11 1.85C15.7769 1.85 18.634 5.33299 19.457 6.50111C18.6373 7.66998 15.7922 11.15 11 11.15ZM7.10002 6.5C7.10002 8.57366 8.85519 10.25 11 10.25C13.1449 10.25 14.9 8.57366 14.9 6.5C14.9 4.42635 13.1449 2.75 11 2.75C8.85519 2.75 7.10002 4.42635 7.10002 6.5ZM8.65002 6.5C8.65002 5.26526 9.6986 4.25 11 4.25C12.3015 4.25 13.35 5.26526 13.35 6.5C13.35 7.73475 12.3015 8.75 11 8.75C9.6986 8.75 8.65002 7.73475 8.65002 6.5Z"
				  stroke="#EEEEEE"
				  stroke-width="0.3" />
		</symbol>
		<symbol xmlns="http://www.w3.org/2000/svg"
				viewBox="0 0 14 9"
				id="arrow_down"
				class="arrow_down">
			<path d="M13.9678 1.02728C13.9686 1.15889 13.9433 1.28935 13.8936 1.41119C13.8438 1.53303 13.7705 1.64384 13.6778 1.73728L7.6778 7.73728C7.49044 7.92353 7.23699 8.02808 6.9728 8.02808C6.70861 8.02808 6.45516 7.92353 6.2678 7.73728L0.267801 1.73728C0.103974 1.54598 0.0183681 1.29991 0.0280892 1.04823C0.0378104 0.796554 0.142142 0.557815 0.320237 0.379721C0.498331 0.201626 0.737071 0.0972933 0.988747 0.0875721C1.24042 0.0778508 1.4865 0.163457 1.6778 0.327284L6.9678 5.61728L12.2578 0.327283C12.3971 0.186862 12.5749 0.0908908 12.7687 0.0515055C12.9625 0.0121206 13.1636 0.0310902 13.3467 0.106016C13.5297 0.180941 13.6864 0.308458 13.797 0.472441C13.9075 0.636424 13.967 0.82951 13.9678 1.02728Z"
				  fill="white" />
		</symbol>
		<symbol xmlns="http://www.w3.org/2000/svg"
				id="heart">
			<path fill-rule="evenodd"
				  clip-rule="evenodd"
				  d="M11.6734 3.5C10.7262 3.5 9.81782 3.87626 9.14807 4.54602C8.47831 5.21577 8.10205 6.12416 8.10205 7.07133C8.10205 8.21342 8.55365 9.38952 9.34091 10.5628C10.1262 11.7333 11.1969 12.8272 12.3076 13.7777C13.4133 14.724 14.5252 15.4997 15.3637 16.0398C15.6622 16.2322 15.9245 16.3936 16.1376 16.5213C16.3506 16.3936 16.6129 16.2322 16.9115 16.0398C17.75 15.4997 18.8619 14.724 19.9676 13.7777C21.0783 12.8272 22.1489 11.7333 22.9342 10.5628C23.7215 9.38952 24.1731 8.21342 24.1731 7.07133C24.1731 6.12416 23.7968 5.21577 23.1271 4.54602C22.4573 3.87626 21.5489 3.5 20.6018 3.5C19.0463 3.5 17.8049 4.3335 17.2944 5.58063C17.1022 6.05028 16.6451 6.35709 16.1376 6.35709C15.6301 6.35709 15.173 6.05028 14.9807 5.58063C14.4702 4.3335 13.2289 3.5 11.6734 3.5ZM16.1376 17.964C15.545 19.0646 15.5447 19.0644 15.5443 19.0642L15.5411 19.0625L15.5339 19.0586L15.5096 19.0453C15.4891 19.0341 15.46 19.018 15.4229 18.9972C15.3486 18.9556 15.2423 18.8953 15.1084 18.8171C14.8408 18.6609 14.4623 18.433 14.0097 18.1415C13.1072 17.56 11.8977 16.7174 10.6821 15.6771C9.47136 14.641 8.22064 13.3802 7.26492 11.9558C6.31114 10.5343 5.60205 8.87562 5.60205 7.07133C5.60205 5.46111 6.24171 3.91685 7.3803 2.77825C8.5189 1.63966 10.0632 1 11.6734 1C13.4074 1 15.0121 1.66809 16.1376 2.84654C17.2631 1.66809 18.8677 1 20.6018 1C22.212 1 23.7563 1.63966 24.8949 2.77825C26.0334 3.91685 26.6731 5.46111 26.6731 7.07133C26.6731 8.87562 25.964 10.5343 25.0102 11.9558C24.0545 13.3802 22.8038 14.641 21.5931 15.6771C20.3774 16.7174 19.1679 17.56 18.2654 18.1415C17.8129 18.433 17.4344 18.6609 17.1668 18.8171C17.0329 18.8953 16.9265 18.9556 16.8523 18.9972C16.8152 19.018 16.7861 19.0341 16.7655 19.0453L16.7412 19.0586L16.734 19.0625L16.7317 19.0638C16.7314 19.0639 16.7302 19.0646 16.1376 17.964ZM16.1376 17.964L16.7302 19.0646C16.3602 19.2638 15.9143 19.2634 15.5443 19.0642L16.1376 17.964Z" />
		</symbol>
	</defs>
</svg>