<svg><defs><symbol xmlns="http://www.w3.org/2000/svg" viewBox="0 0 22 13" class="eye" id="eye"><path d="M21.051 6.133C20.914 5.896 17.631.35 11 .35S1.086 5.896.949 6.133a.731.731 0 0 0 0 .734l.13-.076-.13.076c.138.238 3.42 5.783 10.051 5.783s9.914-5.546 10.051-5.783a.732.732 0 0 0 0-.734Zm0 0-.13.076.13-.076ZM11 11.15c-4.777 0-7.634-3.483-8.457-4.651C3.363 5.33 6.208 1.85 11 1.85c4.777 0 7.634 3.483 8.457 4.651-.82 1.169-3.665 4.649-8.457 4.649ZM7.1 6.5c0 2.074 1.755 3.75 3.9 3.75s3.9-1.676 3.9-3.75-1.755-3.75-3.9-3.75S7.1 4.426 7.1 6.5Zm1.55 0c0-1.235 1.049-2.25 2.35-2.25 1.302 0 2.35 1.015 2.35 2.25S12.302 8.75 11 8.75c-1.301 0-2.35-1.015-2.35-2.25Z" stroke="#EEE" stroke-width=".3"/></symbol><symbol xmlns="http://www.w3.org/2000/svg" viewBox="0 0 14 9" id="arrow_down" class="arrow_down"><path d="M13.968 1.027a1 1 0 0 1-.29.71l-6 6a1 1 0 0 1-1.41 0l-6-6a1 1 0 0 1 1.41-1.41l5.29 5.29 5.29-5.29a1 1 0 0 1 1.71.7Z" fill="#fff"/></symbol><symbol xmlns="http://www.w3.org/2000/svg" id="heart"><path fill-rule="evenodd" clip-rule="evenodd" d="M11.673 3.5a3.571 3.571 0 0 0-3.571 3.571c0 1.142.452 2.319 1.239 3.492.785 1.17 1.856 2.264 2.967 3.215a28.565 28.565 0 0 0 3.83 2.743 28.565 28.565 0 0 0 3.83-2.744c1.11-.95 2.18-2.044 2.966-3.214.787-1.173 1.24-2.35 1.24-3.492A3.572 3.572 0 0 0 20.601 3.5c-1.556 0-2.797.833-3.308 2.08a1.25 1.25 0 0 1-2.313 0c-.51-1.247-1.752-2.08-3.308-2.08Zm4.465 14.464-.594 1.1-.003-.002-.007-.003-.024-.014a29.69 29.69 0 0 1-1.5-.904 31.094 31.094 0 0 1-3.328-2.464c-1.21-1.036-2.461-2.297-3.417-3.721-.954-1.422-1.663-3.08-1.663-4.885A6.071 6.071 0 0 1 11.673 1c1.734 0 3.34.668 4.465 1.847C17.263 1.668 18.868 1 20.602 1a6.071 6.071 0 0 1 6.071 6.071c0 1.805-.709 3.463-1.663 4.885-.956 1.424-2.206 2.685-3.417 3.721a31.104 31.104 0 0 1-4.828 3.368l-.024.014-.007.003-.002.002s-.002 0-.594-1.1Zm0 0 .592 1.1c-.37.2-.816.2-1.186 0l.594-1.1Z"/></symbol><symbol xmlns="http://www.w3.org/2000/svg" viewBox="0 0 18 18" id="search" class="search"><path d="M17.142 15.73 13.9 12.487a7.369 7.369 0 0 0 1.522-4.494c0-1.985-.773-3.85-2.176-5.254A7.38 7.38 0 0 0 7.99.562a7.38 7.38 0 0 0-5.254 2.177c-2.897 2.897-2.897 7.611 0 10.508a7.381 7.381 0 0 0 5.254 2.177c1.647 0 3.207-.54 4.494-1.523l3.243 3.244a.997.997 0 0 0 1.631-.325 1 1 0 0 0-.217-1.09Zm-12.99-3.897a5.437 5.437 0 0 1 1.76-8.86 5.396 5.396 0 0 1 2.08-.41 5.395 5.395 0 0 1 3.839 1.59 5.394 5.394 0 0 1 1.59 3.84c0 1.45-.565 2.814-1.59 3.84a5.392 5.392 0 0 1-3.84 1.59 5.399 5.399 0 0 1-3.84-1.59Z" fill="#fff"/></symbol><symbol xmlns="http://www.w3.org/2000/svg" viewBox="0 0 18 22" class="ring" id="ring" fill="none"><path d="M11.05 19.182v-.05H7.313v.05a1.868 1.868 0 1 0 3.737 0Zm6.29-2.36a.959.959 0 0 0-.208-1.045l-1.537-1.538V9.182a6.414 6.414 0 0 0-5.454-6.334v-.939a.959.959 0 1 0-1.918 0v.939a6.414 6.414 0 0 0-5.455 6.334v5.057l-1.537 1.537a.959.959 0 0 0 .678 1.638h14.545a.959.959 0 0 0 .886-.592Zm-3.2-1.326H4.223l.181-.182a.959.959 0 0 0 .281-.678V9.182a4.495 4.495 0 0 1 8.991 0v5.454c0 .255.101.499.281.678l.181.181Z" fill="#fff" stroke="#fff" stroke-width=".1"/></symbol><symbol xmlns="http://www.w3.org/2000/svg" id="burger" class="burger" viewBox="0 0 18 14"><path d="M16.875 14H1.125C.504 14 0 13.478 0 12.833c0-.644.504-1.166 1.125-1.166h15.75c.621 0 1.125.522 1.125 1.166 0 .645-.504 1.167-1.125 1.167Zm0-5.833H1.125C.504 8.167 0 7.644 0 7s.504-1.167 1.125-1.167h15.75C17.496 5.833 18 6.356 18 7s-.504 1.167-1.125 1.167Zm0-5.834H1.125C.504 2.333 0 1.811 0 1.167 0 .522.504 0 1.125 0h15.75C17.496 0 18 .522 18 1.167c0 .644-.504 1.166-1.125 1.166Z"/></symbol><symbol class="cross" viewBox="0 0 1024 1024" xmlns="http://www.w3.org/2000/svg" id="cross"><path d="M810.66 170.66q18.33 0 30.495 12.165t12.165 30.495q0 18.002-12.33 30.33L572.315 511.98 840.99 780.308q12.329 12.33 12.329 30.331 0 18.33-12.165 30.495T810.66 853.3q-18.002 0-30.331-12.329L512 572.293 243.671 840.97q-12.329 12.33-30.33 12.33-18.33 0-30.496-12.166T170.68 810.64q0-18.002 12.33-30.33l268.676-268.33L183.01 243.652q-12.329-12.33-12.329-30.331 0-18.33 12.165-30.495t30.495-12.165q18.002 0 30.331 12.329L512 451.666l268.329-268.677q12.329-12.33 30.33-12.33z"/></symbol><symbol xmlns="http://www.w3.org/2000/svg" id="pencil" class="pencil"><path fill-rule="evenodd" clip-rule="evenodd" d="m12.04 5 1.344-1.345 2.96 2.959L15 7.96 12.039 5Zm-2.122-.707 2.317-2.317a1.625 1.625 0 0 1 2.298 0l3.491 3.489a1.625 1.625 0 0 1 0 2.297l-2.282 2.283a1.01 1.01 0 0 1-.072.072l-7.28 7.282a1.625 1.625 0 0 1-1.148.476H3.75a1.625 1.625 0 0 1-1.625-1.625v-3.491c0-.431.171-.844.475-1.149l4.818-4.817 2.5-2.5Zm3.667 5.081-6.5 6.501h-2.96v-2.96l4.707-4.708 1.793-1.793 2.96 2.96Z" fill="#BBB"/></symbol><symbol xmlns="http://www.w3.org/2000/svg" viewBox="0 0 20 20" id="exit" class="exit"><path fill-rule="evenodd" clip-rule="evenodd" d="M3.601 2.601a1.625 1.625 0 0 1 1.149-.476h4.375a1 1 0 0 1 0 2h-4v11.75h4a1 1 0 1 1 0 2H4.75a1.625 1.625 0 0 1-1.625-1.625V3.75c0-.431.171-.844.476-1.149ZM8.125 10a1 1 0 0 1 1-1h6.336l-1.418-1.418a1 1 0 0 1 1.414-1.414l3.124 3.124a.996.996 0 0 1 .294.705v.006c0 .272-.11.518-.286.697l-.008.008-3.124 3.124a1 1 0 0 1-1.414-1.414L15.46 11H9.125a1 1 0 0 1-1-1Z" fill="#BBB"/></symbol><symbol xmlns="http://www.w3.org/2000/svg" id="plus" class="plus" viewBox="0 0 20 21" fill="none"><path d="m18.8 9.3-7.777.024V1.7a1.198 1.198 0 1 0-2.399 0l.024 7.602H1.199A1.197 1.197 0 0 0 .091 10.96a1.196 1.196 0 0 0 1.108.74h7.437v7.602a1.197 1.197 0 0 0 1.659 1.108 1.197 1.197 0 0 0 .74-1.108V11.7H18.8a1.198 1.198 0 1 0 0-2.398Z" fill="#fff"/></symbol><symbol xmlns="http://www.w3.org/2000/svg" id="dots" class="dots" viewBox="0 0 5 19"><path d="M.516 9.639a2.03 2.03 0 0 0 2.028 2.028c1.118 0 2.029-.91 2.029-2.028 0-1.119-.91-2.029-2.029-2.029A2.03 2.03 0 0 0 .516 9.639Zm0 6.761a2.03 2.03 0 0 0 2.028 2.029c1.118 0 2.029-.91 2.029-2.029a2.03 2.03 0 0 0-2.029-2.028A2.03 2.03 0 0 0 .516 16.4Zm0-13.523a2.03 2.03 0 0 0 2.028 2.029c1.118 0 2.029-.91 2.029-2.029A2.03 2.03 0 0 0 2.544.85 2.03 2.03 0 0 0 .516 2.878Z"/></symbol><symbol xmlns="http://www.w3.org/2000/svg" id="dotsBig" class="dotsBig" viewBox="0 0 6 20"><path d="M.75 10c0 1.24 1.01 2.25 2.25 2.25S5.25 11.24 5.25 10 4.24 7.75 3 7.75.75 8.76.75 10Zm0 7.5c0 1.24 1.01 2.25 2.25 2.25s2.25-1.01 2.25-2.25S4.24 15.25 3 15.25.75 16.26.75 17.5Zm0-15C.75 3.74 1.76 4.75 3 4.75S5.25 3.74 5.25 2.5 4.24.25 3 .25.75 1.26.75 2.5Z"/></symbol><symbol xmlns="http://www.w3.org/2000/svg" viewBox="0 0 12 13" fill="none" class="small-cross" id="small-cross"><path d="m7.097 6.5 4.675-4.675a.774.774 0 0 0 0-1.097.75.75 0 0 0-.547-.228.772.772 0 0 0-.55.228L6 5.403 1.325.728A.772.772 0 0 0 .775.5a.75.75 0 0 0-.547.228.75.75 0 0 0-.228.547.772.772 0 0 0 .228.55L4.903 6.5.228 11.175a.772.772 0 0 0-.228.55.75.75 0 0 0 .228.547.749.749 0 0 0 .547.228.772.772 0 0 0 .55-.228L6 7.597l4.675 4.675a.773.773 0 0 0 1.097 0 .777.777 0 0 0 0-1.097L7.097 6.5Z" fill="#777"/></symbol><symbol xmlns="http://www.w3.org/2000/svg" class="subs" id="subs" viewBox="0 0 44 44"><g clip-path="url(#clip0_87_621)"><path d="M22 24.846a7.329 7.329 0 1 1 7.33-7.329 7.342 7.342 0 0 1-7.33 7.33Zm0-11.729a4.4 4.4 0 1 0 0 8.8 4.4 4.4 0 0 0 0-8.8Zm14.672 13.2a5.872 5.872 0 1 1 0-11.743 5.872 5.872 0 0 1 0 11.743Zm0-8.8a2.928 2.928 0 1 0 2.929 2.93 2.942 2.942 0 0 0-2.929-2.93Zm-29.342 8.8a5.872 5.872 0 1 1 0-11.743 5.872 5.872 0 0 1 0 11.743Zm0-8.8a2.928 2.928 0 1 0 2.928 2.93 2.942 2.942 0 0 0-2.928-2.93ZM30.8 36.314a1.471 1.471 0 0 1-1.457-1.375 5.087 5.087 0 0 0-5.073-4.593h-4.538a5.087 5.087 0 0 0-5.074 4.593 1.47 1.47 0 0 1-2.915-.289 8.003 8.003 0 0 1 7.99-7.15h4.537a8.002 8.002 0 0 1 7.988 7.233 1.469 1.469 0 0 1-1.375 1.608l-.082-.027Zm11.73-.99a1.471 1.471 0 0 1-1.458-1.375 2.888 2.888 0 0 0-2.901-2.613h-3.025a3.094 3.094 0 0 0-.853.124 1.472 1.472 0 1 1-.838-2.75 6.02 6.02 0 0 1 1.69-.248h3.026A5.816 5.816 0 0 1 44 33.715a1.469 1.469 0 0 1-1.375 1.609h-.096Zm-41.058 0h-.096A1.472 1.472 0 0 1 0 33.715a5.816 5.816 0 0 1 5.816-5.253h3.025a6.019 6.019 0 0 1 1.691.248 1.472 1.472 0 1 1-.838 2.75 3.094 3.094 0 0 0-.853-.124H5.817a2.888 2.888 0 0 0-2.901 2.613 1.471 1.471 0 0 1-1.444 1.375Z"/></g><defs><clipPath id="clip0_87_621"><path fill="#fff" d="M0 0h44v44H0z"/></clipPath></defs></symbol><symbol xmlns="http://www.w3.org/2000/svg" id="camera" class="camera" viewBox="0 0 44 44"><g clip-path="url(#clip0_87_628)"><path d="M42.822 11.427a2.332 2.332 0 0 0-2.356 0l-6.71 3.874v-1.496a5.889 5.889 0 0 0-5.882-5.883H5.882A5.89 5.89 0 0 0 0 13.805v16.39a5.89 5.89 0 0 0 5.882 5.883h21.991a5.889 5.889 0 0 0 5.883-5.883V28.7l6.71 3.874A2.355 2.355 0 0 0 44 30.533V13.467a2.332 2.332 0 0 0-1.178-2.04ZM31.006 30.196a3.136 3.136 0 0 1-3.133 3.132H5.883a3.136 3.136 0 0 1-3.133-3.133v-16.39a3.136 3.136 0 0 1 3.132-3.133h21.991a3.136 3.136 0 0 1 3.133 3.133v16.39Zm10.244-.346-7.494-4.327v-7.046l7.494-4.328v15.702Z"/></g><defs><clipPath id="clip0_87_628"><path fill="#fff" d="M0 0h44v44H0z"/></clipPath></defs></symbol><symbol xmlns="http://www.w3.org/2000/svg" viewBox="0 0 24 24" id="facebook" class="facebook"><g clip-path="url(#clip0_106_2854)"><path d="M12 2C6.477 2 2 6.477 2 12c0 4.991 3.657 9.128 8.438 9.879V14.89h-2.54V12h2.54V9.797c0-2.506 1.492-3.89 3.777-3.89 1.094 0 2.238.195 2.238.195v2.46h-1.26c-1.243 0-1.63.771-1.63 1.562V12h2.773l-.443 2.89h-2.33v6.989C18.343 21.129 22 16.99 22 12c0-5.523-4.477-10-10-10Z"/></g><defs><clipPath id="clip0_106_2854"><path fill="#fff" d="M0 0h24v24H0z"/></clipPath></defs></symbol><symbol xmlns="http://www.w3.org/2000/svg" id="inst" class="inst" viewBox="0 0 24 24"><g clip-path="url(#clip0_106_2876)"><path d="M12 2c2.717 0 3.056.01 4.122.06 1.065.05 1.79.217 2.428.465.66.254 1.216.598 1.772 1.153.509.5.902 1.105 1.153 1.772.247.637.415 1.363.465 2.428.047 1.066.06 1.405.06 4.122 0 2.717-.01 3.056-.06 4.122-.05 1.065-.218 1.79-.465 2.428a4.883 4.883 0 0 1-1.153 1.772c-.5.508-1.105.902-1.772 1.153-.637.247-1.363.415-2.428.465-1.066.047-1.405.06-4.122.06-2.717 0-3.056-.01-4.122-.06-1.065-.05-1.79-.218-2.428-.465a4.89 4.89 0 0 1-1.772-1.153 4.904 4.904 0 0 1-1.153-1.772c-.248-.637-.415-1.363-.465-2.428C2.013 15.056 2 14.717 2 12c0-2.717.01-3.056.06-4.122.05-1.066.217-1.79.465-2.428a4.88 4.88 0 0 1 1.153-1.772A4.897 4.897 0 0 1 5.45 2.525c.638-.248 1.362-.415 2.428-.465C8.944 2.013 9.283 2 12 2Zm0 5a5 5 0 1 0 0 10 5 5 0 0 0 0-10Zm6.5-.25a1.25 1.25 0 1 0-2.5 0 1.25 1.25 0 0 0 2.5 0ZM12 9a3 3 0 1 1 0 6 3 3 0 0 1 0-6Z"/></g><defs><clipPath id="clip0_106_2876"><path fill="#fff" d="M0 0h24v24H0z"/></clipPath></defs></symbol><symbol xmlns="http://www.w3.org/2000/svg" viewBox="0 0 24 24" id="twitter" class="twitter"><g clip-path="url(#clip0_106_2886)"><path d="M22.162 5.656a8.383 8.383 0 0 1-2.402.658A4.196 4.196 0 0 0 21.6 4c-.82.488-1.719.83-2.656 1.015a4.182 4.182 0 0 0-7.126 3.814 11.874 11.874 0 0 1-8.62-4.37 4.168 4.168 0 0 0-.566 2.103c0 1.45.738 2.73 1.86 3.48a4.168 4.168 0 0 1-1.894-.522v.052a4.185 4.185 0 0 0 3.355 4.1 4.209 4.209 0 0 1-1.89.073A4.185 4.185 0 0 0 7.97 16.65a8.393 8.393 0 0 1-6.19 1.732 11.83 11.83 0 0 0 6.41 1.88c7.692 0 11.9-6.373 11.9-11.9 0-.18-.006-.362-.014-.54a8.495 8.495 0 0 0 2.087-2.165v-.001Z" fill="#BBB"/></g><defs><clipPath id="clip0_106_2886"><path d="M0 0h24v24H0z"/></clipPath></defs></symbol><symbol xmlns="http://www.w3.org/2000/svg" id="return-arrow" class="return-arrow" viewBox="0 0 8 14"><path d="M7 14a.999.999 0 0 1-.71-.29l-6-6a1 1 0 0 1 0-1.41l6-6A1 1 0 0 1 7.7 1.71L2.41 7l5.29 5.29A1 1 0 0 1 7 14Z"/></symbol><symbol xmlns="http://www.w3.org/2000/svg" id="like" class="like" viewBox="0 0 18 19"><path d="M15.671 6.037h-3.218l.269-1.423a4.646 4.646 0 0 0-.098-2.146A4.462 4.462 0 0 0 11.576.626a2.009 2.009 0 0 0-.809-.523 1.922 1.922 0 0 0-.946-.075 1.968 1.968 0 0 0-.874.387c-.258.2-.468.463-.611.766L6.63 4.787a4.914 4.914 0 0 1-1.136 1.515.81.81 0 0 0-.267-.196.773.773 0 0 0-.319-.069H.82a.797.797 0 0 0-.58.253.89.89 0 0 0-.239.611v11.235c0 .229.086.449.24.61A.797.797 0 0 0 .818 19H4.91a.788.788 0 0 0 .46-.152.859.859 0 0 0 .299-.398l1.437.505a.78.78 0 0 0 .259.045H13.4a3.34 3.34 0 0 0 1.552-.39 3.542 3.542 0 0 0 1.226-1.08A10.043 10.043 0 0 0 18 11.76V8.497c0-.653-.246-1.278-.683-1.739a2.269 2.269 0 0 0-1.646-.72ZM4.091 17.272H1.636V7.765h2.455v9.507Zm12.273-5.512a8.237 8.237 0 0 1-1.494 4.736 1.874 1.874 0 0 1-.65.571 1.766 1.766 0 0 1-.823.206h-5.9l-1.77-.624v-8.4A6.57 6.57 0 0 0 8.1 5.559l1.702-3.605a.405.405 0 0 1 .117-.147.377.377 0 0 1 .348-.06c.059.02.112.055.155.1.297.313.515.698.637 1.121.121.424.141.872.059 1.306l-.465 2.454a.912.912 0 0 0 .168.72.798.798 0 0 0 .633.317h4.217c.184 0 .36.078.49.215s.203.323.203.517v3.263Z"/></symbol><symbol xmlns="http://www.w3.org/2000/svg" id="dislike" class="dislike" viewBox="0 0 18 19"><path d="M2.329 12.963h3.218l-.269 1.423a4.646 4.646 0 0 0 .098 2.146c.2.696.56 1.33 1.048 1.843.226.239.504.418.809.522.305.104.63.13.946.075a1.97 1.97 0 0 0 .874-.387c.258-.2.468-.463.611-.766l1.705-3.606a4.915 4.915 0 0 1 1.136-1.514c.076.083.167.15.267.195a.77.77 0 0 0 .319.069h4.09a.797.797 0 0 0 .58-.253.89.89 0 0 0 .239-.611V.864a.89.89 0 0 0-.24-.61.797.797 0 0 0-.578-.254H13.09a.788.788 0 0 0-.46.152.857.857 0 0 0-.299.398L10.896.045a.778.778 0 0 0-.26-.045H4.6a3.339 3.339 0 0 0-1.552.39 3.542 3.542 0 0 0-1.226 1.08A10.043 10.043 0 0 0 0 7.24v3.263c0 .653.246 1.278.682 1.739a2.27 2.27 0 0 0 1.647.72Zm11.58-11.235h2.455v9.507h-2.455V1.728ZM1.636 7.24A8.237 8.237 0 0 1 3.13 2.504c.172-.24.395-.436.65-.571.256-.135.537-.206.823-.206h5.9l1.77.624v8.4a6.57 6.57 0 0 0-2.373 2.69l-1.702 3.605a.404.404 0 0 1-.117.146.376.376 0 0 1-.348.06.384.384 0 0 1-.155-.1 2.712 2.712 0 0 1-.637-1.12 2.824 2.824 0 0 1-.058-1.306l.464-2.455a.912.912 0 0 0-.168-.719.826.826 0 0 0-.283-.234.783.783 0 0 0-.35-.083H2.328a.674.674 0 0 1-.49-.215.753.753 0 0 1-.203-.517V7.24Z"/></symbol><symbol xmlns="http://www.w3.org/2000/svg" viewBox="0 0 20 17" id="comments" class="comments"><path d="M7.102 5.5h5.796m0 3H7.102M12.898 1H7.102C3.732 1 1 3.686 1 7s2.732 6 6.102 6h1.22c.843 0 1.525.672 1.525 1.5V16c6.33-3.96 9.113-4.958 9.153-8.915V7c0-3.314-2.732-6-6.102-6Z" stroke="#BBB" stroke-width="2" stroke-miterlimit="10" stroke-linecap="round" stroke-linejoin="round"/></symbol></defs></svg>