<svg><defs><symbol xmlns="http://www.w3.org/2000/svg" viewBox="0 0 22 13" class="eye" id="eye"><path d="M21.051 6.133C20.914 5.896 17.631.35 11 .35S1.086 5.896.949 6.133a.731.731 0 0 0 0 .734l.13-.076-.13.076c.138.238 3.42 5.783 10.051 5.783s9.914-5.546 10.051-5.783a.732.732 0 0 0 0-.734Zm0 0-.13.076.13-.076ZM11 11.15c-4.777 0-7.634-3.483-8.457-4.651C3.363 5.33 6.208 1.85 11 1.85c4.777 0 7.634 3.483 8.457 4.651-.82 1.169-3.665 4.649-8.457 4.649ZM7.1 6.5c0 2.074 1.755 3.75 3.9 3.75s3.9-1.676 3.9-3.75-1.755-3.75-3.9-3.75S7.1 4.426 7.1 6.5Zm1.55 0c0-1.235 1.049-2.25 2.35-2.25 1.302 0 2.35 1.015 2.35 2.25S12.302 8.75 11 8.75c-1.301 0-2.35-1.015-2.35-2.25Z" stroke="#EEE" stroke-width=".3"/></symbol><symbol xmlns="http://www.w3.org/2000/svg" viewBox="0 0 14 9" id="arrow_down" class="arrow_down"><path d="M13.968 1.027a1 1 0 0 1-.29.71l-6 6a1 1 0 0 1-1.41 0l-6-6a1 1 0 0 1 1.41-1.41l5.29 5.29 5.29-5.29a1 1 0 0 1 1.71.7Z" fill="#fff"/></symbol><symbol xmlns="http://www.w3.org/2000/svg" id="heart"><path fill-rule="evenodd" clip-rule="evenodd" d="M11.673 3.5a3.571 3.571 0 0 0-3.571 3.571c0 1.142.452 2.319 1.239 3.492.785 1.17 1.856 2.264 2.967 3.215a28.565 28.565 0 0 0 3.83 2.743 28.565 28.565 0 0 0 3.83-2.744c1.11-.95 2.18-2.044 2.966-3.214.787-1.173 1.24-2.35 1.24-3.492A3.572 3.572 0 0 0 20.601 3.5c-1.556 0-2.797.833-3.308 2.08a1.25 1.25 0 0 1-2.313 0c-.51-1.247-1.752-2.08-3.308-2.08Zm4.465 14.464-.594 1.1-.003-.002-.007-.003-.024-.014a29.69 29.69 0 0 1-1.5-.904 31.094 31.094 0 0 1-3.328-2.464c-1.21-1.036-2.461-2.297-3.417-3.721-.954-1.422-1.663-3.08-1.663-4.885A6.071 6.071 0 0 1 11.673 1c1.734 0 3.34.668 4.465 1.847C17.263 1.668 18.868 1 20.602 1a6.071 6.071 0 0 1 6.071 6.071c0 1.805-.709 3.463-1.663 4.885-.956 1.424-2.206 2.685-3.417 3.721a31.104 31.104 0 0 1-4.828 3.368l-.024.014-.007.003-.002.002s-.002 0-.594-1.1Zm0 0 .592 1.1c-.37.2-.816.2-1.186 0l.594-1.1Z"/></symbol><symbol xmlns="http://www.w3.org/2000/svg" viewBox="0 0 18 18" id="search" class="search"><path d="M17.142 15.73 13.9 12.487a7.369 7.369 0 0 0 1.522-4.494c0-1.985-.773-3.85-2.176-5.254A7.38 7.38 0 0 0 7.99.562a7.38 7.38 0 0 0-5.254 2.177c-2.897 2.897-2.897 7.611 0 10.508a7.381 7.381 0 0 0 5.254 2.177c1.647 0 3.207-.54 4.494-1.523l3.243 3.244a.997.997 0 0 0 1.631-.325 1 1 0 0 0-.217-1.09Zm-12.99-3.897a5.437 5.437 0 0 1 1.76-8.86 5.396 5.396 0 0 1 2.08-.41 5.395 5.395 0 0 1 3.839 1.59 5.394 5.394 0 0 1 1.59 3.84c0 1.45-.565 2.814-1.59 3.84a5.392 5.392 0 0 1-3.84 1.59 5.399 5.399 0 0 1-3.84-1.59Z" fill="#fff"/></symbol><symbol xmlns="http://www.w3.org/2000/svg" viewBox="0 0 18 22" class="ring" id="ring" fill="none"><path d="M11.05 19.182v-.05H7.313v.05a1.868 1.868 0 1 0 3.737 0Zm6.29-2.36a.959.959 0 0 0-.208-1.045l-1.537-1.538V9.182a6.414 6.414 0 0 0-5.454-6.334v-.939a.959.959 0 1 0-1.918 0v.939a6.414 6.414 0 0 0-5.455 6.334v5.057l-1.537 1.537a.959.959 0 0 0 .678 1.638h14.545a.959.959 0 0 0 .886-.592Zm-3.2-1.326H4.223l.181-.182a.959.959 0 0 0 .281-.678V9.182a4.495 4.495 0 0 1 8.991 0v5.454c0 .255.101.499.281.678l.181.181Z" fill="#fff" stroke="#fff" stroke-width=".1"/></symbol><symbol xmlns="http://www.w3.org/2000/svg" id="burger" class="burger" viewBox="0 0 18 14"><path d="M16.875 14H1.125C.504 14 0 13.478 0 12.833c0-.644.504-1.166 1.125-1.166h15.75c.621 0 1.125.522 1.125 1.166 0 .645-.504 1.167-1.125 1.167Zm0-5.833H1.125C.504 8.167 0 7.644 0 7s.504-1.167 1.125-1.167h15.75C17.496 5.833 18 6.356 18 7s-.504 1.167-1.125 1.167Zm0-5.834H1.125C.504 2.333 0 1.811 0 1.167 0 .522.504 0 1.125 0h15.75C17.496 0 18 .522 18 1.167c0 .644-.504 1.166-1.125 1.166Z"/></symbol><symbol class="cross" viewBox="0 0 1024 1024" xmlns="http://www.w3.org/2000/svg" id="cross"><path d="M810.66 170.66q18.33 0 30.495 12.165t12.165 30.495q0 18.002-12.33 30.33L572.315 511.98 840.99 780.308q12.329 12.33 12.329 30.331 0 18.33-12.165 30.495T810.66 853.3q-18.002 0-30.331-12.329L512 572.293 243.671 840.97q-12.329 12.33-30.33 12.33-18.33 0-30.496-12.166T170.68 810.64q0-18.002 12.33-30.33l268.676-268.33L183.01 243.652q-12.329-12.33-12.329-30.331 0-18.33 12.165-30.495t30.495-12.165q18.002 0 30.331 12.329L512 451.666l268.329-268.677q12.329-12.33 30.33-12.33z"/></symbol><symbol xmlns="http://www.w3.org/2000/svg" id="pencil" class="pencil"><path fill-rule="evenodd" clip-rule="evenodd" d="m12.04 5 1.344-1.345 2.96 2.959L15 7.96 12.039 5Zm-2.122-.707 2.317-2.317a1.625 1.625 0 0 1 2.298 0l3.491 3.489a1.625 1.625 0 0 1 0 2.297l-2.282 2.283a1.01 1.01 0 0 1-.072.072l-7.28 7.282a1.625 1.625 0 0 1-1.148.476H3.75a1.625 1.625 0 0 1-1.625-1.625v-3.491c0-.431.171-.844.475-1.149l4.818-4.817 2.5-2.5Zm3.667 5.081-6.5 6.501h-2.96v-2.96l4.707-4.708 1.793-1.793 2.96 2.96Z" fill="#BBB"/></symbol><symbol xmlns="http://www.w3.org/2000/svg" viewBox="0 0 20 20" id="exit" class="exit"><path fill-rule="evenodd" clip-rule="evenodd" d="M3.601 2.601a1.625 1.625 0 0 1 1.149-.476h4.375a1 1 0 0 1 0 2h-4v11.75h4a1 1 0 1 1 0 2H4.75a1.625 1.625 0 0 1-1.625-1.625V3.75c0-.431.171-.844.476-1.149ZM8.125 10a1 1 0 0 1 1-1h6.336l-1.418-1.418a1 1 0 0 1 1.414-1.414l3.124 3.124a.996.996 0 0 1 .294.705v.006c0 .272-.11.518-.286.697l-.008.008-3.124 3.124a1 1 0 0 1-1.414-1.414L15.46 11H9.125a1 1 0 0 1-1-1Z" fill="#BBB"/></symbol><symbol xmlns="http://www.w3.org/2000/svg" id="plus" class="plus" viewBox="0 0 20 21" fill="none"><path d="m18.8 9.3-7.777.024V1.7a1.198 1.198 0 1 0-2.399 0l.024 7.602H1.199A1.197 1.197 0 0 0 .091 10.96a1.196 1.196 0 0 0 1.108.74h7.437v7.602a1.197 1.197 0 0 0 1.659 1.108 1.197 1.197 0 0 0 .74-1.108V11.7H18.8a1.198 1.198 0 1 0 0-2.398Z" fill="#fff"/></symbol><symbol xmlns="http://www.w3.org/2000/svg" id="dots" class="dots" viewBox="0 0 5 19"><path d="M.516 9.639a2.03 2.03 0 0 0 2.028 2.028c1.118 0 2.029-.91 2.029-2.028 0-1.119-.91-2.029-2.029-2.029A2.03 2.03 0 0 0 .516 9.639Zm0 6.761a2.03 2.03 0 0 0 2.028 2.029c1.118 0 2.029-.91 2.029-2.029a2.03 2.03 0 0 0-2.029-2.028A2.03 2.03 0 0 0 .516 16.4Zm0-13.523a2.03 2.03 0 0 0 2.028 2.029c1.118 0 2.029-.91 2.029-2.029A2.03 2.03 0 0 0 2.544.85 2.03 2.03 0 0 0 .516 2.878Z"/></symbol><symbol xmlns="http://www.w3.org/2000/svg" id="dotsBig" class="dotsBig" viewBox="0 0 6 20"><path d="M.75 10c0 1.24 1.01 2.25 2.25 2.25S5.25 11.24 5.25 10 4.24 7.75 3 7.75.75 8.76.75 10Zm0 7.5c0 1.24 1.01 2.25 2.25 2.25s2.25-1.01 2.25-2.25S4.24 15.25 3 15.25.75 16.26.75 17.5Zm0-15C.75 3.74 1.76 4.75 3 4.75S5.25 3.74 5.25 2.5 4.24.25 3 .25.75 1.26.75 2.5Z"/></symbol><symbol xmlns="http://www.w3.org/2000/svg" viewBox="0 0 12 13" fill="none" class="small-cross" id="small-cross"><path d="m7.097 6.5 4.675-4.675a.774.774 0 0 0 0-1.097.75.75 0 0 0-.547-.228.772.772 0 0 0-.55.228L6 5.403 1.325.728A.772.772 0 0 0 .775.5a.75.75 0 0 0-.547.228.75.75 0 0 0-.228.547.772.772 0 0 0 .228.55L4.903 6.5.228 11.175a.772.772 0 0 0-.228.55.75.75 0 0 0 .228.547.749.749 0 0 0 .547.228.772.772 0 0 0 .55-.228L6 7.597l4.675 4.675a.773.773 0 0 0 1.097 0 .777.777 0 0 0 0-1.097L7.097 6.5Z" fill="#777"/></symbol></defs></svg>